# xmcd
#
# Track frame offsets:
#	150
#	21792
#	38053
#	56680
#	73320
#	92191
#
# Disc length: 1516 seconds
#
# Revision: 0
# Processed by: cddbd v1.5.2PL0 Copyright (c) Steve Scherf et al.
# Submitted via: EasyCDDAExtractor 9.1.0.1
#
DISCID=4f05ea06
DTITLE=ΓΙΑΝΝΗΣ ΤΑΣΣΙΟΣ - ΓΛΩΣΣΑ ΕΠΙΚΟΙΝΩΝΙΑΣ
DYEAR=2008
DGENRE=ΛΑΙΚΑ
TTITLE0=ΓΛΩΣΣΑ ΕΠΙΚΟΙΝΩΝΙΑΣ
TTITLE1=ΣΑΝ ΚΑΡΦΙ
TTITLE2=ΗΤΑΝ ΓΡΑΦΤΟ
TTITLE3=ΑΓΑΠΗΣΑ
TTITLE4=ΓΛΩΣΣΑ ΕΠΙΚΟΙΝΩΝΙΑΣ (ΝΤΕΡΤΙ MIX)
TTITLE5=ΓΛΩΣΣΑ ΕΠΙΚΟΙΝΩΝΙΑΣ (KARAOKE)
EXTD=
EXTT0=
EXTT1=
EXTT2=
EXTT3=
EXTT4=
EXTT5=
PLAYORDER=
